PathFileType	4	(X/Y/Z)	/Users/niels/Desktop/University/Third Semester/Perception and Action/Exam/Gymnastics Motion Tracking/Code for Gym Tracking/Scripts/Analyzed Data/kraft_bad_id3_1_nmspeed_Sports2D/kraft_bad_id3_1_nmspeed_Sports2D_px_person00.trc
DataRate	CameraRate	NumFrames	NumMarkers	Units	OrigDataRate	OrigDataStartFrame	OrigNumFrames
49.404761904761905	49.404761904761905	9	22	m	49.404761904761905	14	84
Frame#	Time	Hip			RHip			RKnee			RAnkle			RBigToe			RSmallToe			RHeel			LHip			LKnee			LAnkle			LBigToe			LSmallToe			LHeel			Neck			Head			Nose			RShoulder			RElbow			RWrist			LShoulder			LElbow			LWrist		
		X1	Y1	Z1	X2	Y2	Z2	X3	Y3	Z3	X4	Y4	Z4	X5	Y5	Z5	X6	Y6	Z6	X7	Y7	Z7	X8	Y8	Z8	X9	Y9	Z9	X10	Y10	Z10	X11	Y11	Z11	X12	Y12	Z12	X13	Y13	Z13	X14	Y14	Z14	X15	Y15	Z15	X16	Y16	Z16	X17	Y17	Z17	X18	Y18	Z18	X19	Y19	Z19	X20	Y20	Z20	X21	Y21	Z21	X22	Y22	Z22
14	0.2833734939759036	0.2673872030185891	-0.46610601423808123	0.0	0.24076544826900742	-0.4634951529737496	0.0	0.25284222919158755	-0.6122293616045921	0.0	0.2178128448457611	-0.7563336148313482	0.0	0.2568245002660339	-0.8056216416828128	0.0	0.23480594984324502	-0.8066130811761265	0.0	0.20379125218047564	-0.7719035208222326	0.0	0.2932420007769055	-0.46418261068864614	0.0	0.38676144599114154	-0.5671649773947	0.0	0.36637649281665313	-0.7095571333046586	0.0	0.4121683612535065	-0.7555480026290482	0.0	0.41506491761578257	-0.7472566961055531	0.0	0.3484499648451418	-0.7321682303534466	0.0	0.32617386642219987	-0.29871737999693726	0.0	0.3644360731215409	-0.21059826896465686	0.0	0.3794085691260433	-0.2574001597208709	0.0	0.28752425260791065	-0.300664305055143	0.0	0.37425495220822413	-0.27135825827011817	0.0	0.45488408898896665	-0.22544219279766167	0.0	0.3591813423690717	-0.3131009688482202	0.0	0.44882696553927903	-0.2954331419499023	0.0	0.5326172661363863	-0.26213694100504065	0.0
15	0.3036144578313253	0.2878674394292001	-0.46543042784917826	0.0	0.26146699485891395	-0.46233741341977064	0.0	0.2751467893261327	-0.6109958333856718	0.0	0.24487959675763177	-0.7561486303136604	0.0	0.28468111434979604	-0.8037993471110461	0.0	0.2626602464641597	-0.8051726130427745	0.0	0.231416722427089	-0.7723027744269384	0.0	0.3136939576789645	-0.46353615681222776	0.0	0.40425803017764506	-0.5683053123720125	0.0	0.39276642633573355	-0.7124718928938768	0.0	0.44073340825098906	-0.7562460039129302	0.0	0.44346603612811203	-0.748077543505972	0.0	0.3757149100886332	-0.7361111686409084	0.0	0.3516964325868373	-0.2988381942708917	0.0	0.39078809421329946	-0.21230132240308888	0.0	0.40510932552699863	-0.2585781487906439	0.0	0.3136957487994597	-0.3005692589776589	0.0	0.4010979759726167	-0.27206013164361675	0.0	0.4829972914024264	-0.22673496808970917	0.0	0.3832428497648383	-0.31425169216988225	0.0	0.47293489802762223	-0.29754261111095703	0.0	0.5572029016500117	-0.26542159031283125	0.0
16	0.32385542168674697	0.3083328097734781	-0.4662600266912348	0.0	0.2820794588768328	-0.46272859959351187	0.0	0.29768986543955106	-0.611316603517058	0.0	0.2721508482949672	-0.7575327145857802	0.0	0.3128044110570704	-0.8034737324680996	0.0	0.29085678619714656	-0.8052257796300706	0.0	0.25914326888772277	-0.7741845207977717	0.0	0.33423842114819374	-0.4644627513965603	0.0	0.42192375852958525	-0.5708078513960065	0.0	0.41805859961304215	-0.7160248980783313	0.0	0.4677367399823431	-0.7577102350504544	0.0	0.470261940423748	-0.7496824317967832	0.0	0.40194249314024977	-0.7404119089717409	0.0	0.3769667263538778	-0.300567535235082	0.0	0.4167953943562176	-0.21539788647670957	0.0	0.4304471774046566	-0.26138230443685595	0.0	0.3395812288505117	-0.3021175761956161	0.0	0.4276331726727041	-0.27451799979263336	0.0	0.5105471675432532	-0.22970645757781274	0.0	0.4070698012040129	-0.31683868403908794	0.0	0.4969531398331806	-0.301259444496785	0.0	0.5814689739980062	-0.270229824208202	0.0
17	0.34409638554216865	0.32885168703442114	-0.46855121949352746	0.0	0.30269803904302334	-0.4646556740367748	0.0	0.3204591606615147	-0.6131719979789546	0.0	0.299319680659517	-0.7604311441785816	0.0	0.3408789548739476	-0.8046545943886838	0.0	0.319080034829087	-0.806772618785895	0.0	0.2866467273925289	-0.7774688182965107	0.0	0.3549050658911855	-0.46694086283143904	0.0	0.4399850369174841	-0.5745706507323557	0.0	0.44240710401935707	-0.7203164587725848	0.0	0.49341747604073877	-0.7600460034056897	0.0	0.49566384261744373	-0.7522029447614175	0.0	0.427275593863491	-0.7452199601940668	0.0	0.40204151037904134	-0.30392999156400025	0.0	0.44265848028151755	-0.21997998768963756	0.0	0.45556891055896864	-0.26587948436532105	0.0	0.3652952908414146	-0.30529932246261426	0.0	0.45408828231468434	-0.2786512344836017	0.0	0.5377830025492589	-0.23434034398015557	0.0	0.43074675241044824	-0.32086882326569766	0.0	0.5209549159298438	-0.3065523024037961	0.0	0.6054681748996498	-0.2765472914607135	0.0
18	0.3643373493975903	0.3494154732274355	-0.4722449426099228	0.0	0.32334599813896003	-0.4680717927758915	0.0	0.3433649540393571	-0.6165000725771018	0.0	0.32600270788310787	-0.7647327640745915	0.0	0.3684770933175718	-0.8072911515426096	0.0	0.3468875200792595	-0.8097604076477571	0.0	0.31355965073972186	-0.7820289305106846	0.0	0.37564869328917927	-0.4709229948192306	0.0	0.45856194421600877	-0.579486999091374	0.0	0.4658685238894985	-0.7254209790524965	0.0	0.5179021876884174	-0.7633024130752074	0.0	0.519776405523605	-0.7556936853027039	0.0	0.45175595964329235	-0.7506432327172867	0.0	0.42693309091284737	-0.3089171595369242	0.0	0.46854878023485613	-0.22615936697158906	0.0	0.4805698920269342	-0.2721292432410564	0.0	0.39091569001801363	-0.3100723657759732	0.0	0.48061932658095563	-0.28436543596680225	0.0	0.5649093834081138	-0.24058700673221453	0.0	0.4542918121549572	-0.3263289353845842	0.0	0.544968143658811	-0.3133566842921993	0.0	0.6292571008156433	-0.28433194227631137	0.0
19	0.384578313253012	0.369907239235991	-0.47724745662414436	0.0	0.3439294583284896	-0.4728768000341073	0.0	0.3661796173974977	-0.6211781666165491	0.0	0.3516670657675173	-0.7702684960374637	0.0	0.3950022427429472	-0.8112824243249983	0.0	0.37365790547528593	-0.814086113314932	0.0	0.3393783408023234	-0.7876912276767768	0.0	0.3963292804341338	-0.47631817834647167	0.0	0.4776182235601253	-0.585438089281805	0.0	0.4883310712219852	-0.7313608172137424	0.0	0.5411086580646657	-0.7674783977327039	0.0	0.5425240471789536	-0.7601323361196869	0.0	0.4752509290108418	-0.756716574853861	0.0	0.4515717164317175	-0.3154863677135275	0.0	0.49456528073384903	-0.23403893060182537	0.0	0.5054549234675835	-0.28016982221390513	0.0	0.4164378433417045	-0.3163594966634412	0.0	0.5072679553911827	-0.2915603072882227	0.0	0.5920238051106873	-0.2483814104866359	0.0	0.4776262401308676	-0.3331716098272461	0.0	0.5689264526190955	-0.32156662634030514	0.0	0.6528496899456518	-0.29350898692714655	0.0
20	0.4048192771084337	0.39020463929521637	-0.483416699735966	0.0	0.36433908256836584	-0.4789045738786893	0.0	0.3886210561323038	-0.6270196478587052	0.0	0.3757257919981483	-0.7768232124600941	0.0	0.4198043061309664	-0.816484418362983	0.0	0.3987108027233155	-0.8195958781912742	0.0	0.36353532574603986	-0.7942531121150295	0.0	0.41681879418812834	-0.48298345309935087	0.0	0.49703512511674536	-0.5922972058127287	0.0	0.5096017621803842	-0.7380963682767923	0.0	0.5628127114830528	-0.7725329893650591	0.0	0.5637334851803932	-0.7654428983585447	0.0	0.497532492644108	-0.7633983064161624	0.0	0.47591669611791293	-0.3235802808396142	0.0	0.5208392761877316	-0.24370576708861444	0.0	0.5302472973121202	-0.29002361342152344	0.0	0.4418831166990139	-0.3240782190566126	0.0	0.5340711764968149	-0.30017365649529787	0.0	0.6192155106359486	-0.25770369729472703	0.0	0.5006964798137363	-0.34132526098177207	0.0	0.5927632570013971	-0.33106306976300437	0.0	0.6763034638087679	-0.3040016784561074	0.0
21	0.4250602409638554	0.4103048258830652	-0.49056360271938	0.0	0.3845797983492181	-0.48593494466710374	0.0	0.41045899619749776	-0.6337934115863917	0.0	0.39766950936891543	-0.784142145836854	0.0	0.4423121896074094	-0.8227061481048686	0.0	0.42144596768532716	-0.826073749582689	0.0	0.38552120066302675	-0.8014867309489309	0.0	0.4371180714309174	-0.49073357939215617	0.0	0.5167090789517045	-0.599935423099996	0.0	0.529536249181193	-0.745522683477813	0.0	0.582760574137728	-0.7783859083372736	0.0	0.5832465525060875	-0.7715171252375185	0.0	0.5183907069422856	-0.7705740553542729	0.0	0.5000904083894031	-0.3331521820550541	0.0	0.5476366067038935	-0.25524520333842016	0.0	0.5551142098900694	-0.30169889500610675	0.0	0.467424611323368	-0.3331775992386141	0.0	0.5611851789848007	-0.3102272106442439	0.0	0.6466797390737802	-0.2686378059008274	0.0	0.5236180379928603	-0.35072207080340034	0.0	0.6165340946887994	-0.34176468393250375	0.0	0.699807816893323	-0.3157738821594818	0.0
22	0.4453012048192771	0.4303243578330305	-0.498441176814059	0.0	0.4047691449351457	-0.4936949606104327	0.0	0.43149207900554015	-0.6412226729478733	0.0	0.417077131418785	-0.7919000207138472	0.0	0.4620290622135844	-0.829676462572045	0.0	0.4413473973724646	-0.8332046885961392	0.0	0.4049031703274099	-0.8090997583042387	0.0	0.4573407968265791	-0.4993306681705389	0.0	0.5365379750954187	-0.6081996684945471	0.0	0.5480533001012905	-0.7534440753888595	0.0	0.600679547526508	-0.7848950008160914	0.0	0.6009234619978822	-0.7782015568999386	0.0	0.5376321757294598	-0.7780428489684021	0.0	0.5243674639895041	-0.3441510073296361	0.0	0.5752987508158172	-0.2687132951374229	0.0	0.5803469089252138	-0.31514743927901506	0.0	0.4933574004351168	-0.3436229319522506	0.0	0.5888557804923553	-0.32181378611631073	0.0	0.6746735756823979	-0.2813651567647269	0.0	0.5466662844563445	-0.36129329798355564	0.0	0.6404041716819857	-0.35363735451521316	0.0	0.7236284666654657	-0.3288299800295768	0.0
